<svg id="svg" version="1.1" xmlns="http://www.w3.org/2000/svg" xmlns:xlink="http://www.w3.org/1999/xlink" width="64" height="64" viewBox="0, 0, 400,400"><g id="svgg"><path id="path0" d="M171.618 56.666 C 169.352 60.332,169.074 64.907,170.999 66.832 C 172.924 68.758,165.730 76.305,155.012 83.604 C 121.692 106.295,111.143 125.879,111.601 164.197 C 112.122 207.860,103.897 236.719,87.696 248.066 C 79.115 254.077,75.000 263.933,75.000 278.479 L 75.000 300.000 200.000 300.000 L 325.000 300.000 325.000 278.479 C 325.000 263.933,320.885 254.077,312.304 248.066 C 296.625 237.084,287.507 206.823,287.477 165.666 C 287.449 128.895,271.263 98.153,243.659 82.447 C 233.440 76.632,225.061 66.953,225.040 60.938 C 224.994 48.395,179.003 44.717,171.618 56.666 M350.323 90.236 C 345.821 95.660,345.449 103.654,349.234 113.610 C 352.398 121.931,357.005 147.586,359.471 170.620 C 366.466 235.933,387.500 232.490,387.500 166.032 C 387.500 101.004,370.370 66.080,350.323 90.236 M19.169 102.023 C 5.611 137.684,8.967 212.500,24.126 212.500 C 33.521 212.500,36.450 206.204,39.396 179.688 C 41.400 161.641,44.989 133.516,47.370 117.188 C 52.313 83.291,30.708 71.673,19.169 102.023 M69.361 107.183 C 56.663 143.609,60.352 212.500,75.000 212.500 C 84.967 212.500,87.500 208.333,87.500 191.938 C 87.500 180.629,91.743 155.087,96.928 135.178 C 107.135 95.991,105.499 87.500,87.743 87.500 C 80.441 87.500,73.711 94.707,69.361 107.183 M296.527 107.813 C 298.835 118.984,303.892 147.109,307.765 170.313 C 313.442 204.317,317.008 212.500,326.154 212.500 C 341.246 212.500,342.577 134.196,327.964 105.940 C 313.842 78.630,290.783 80.003,296.527 107.813 M176.147 342.188 C 179.132 368.128,220.868 368.128,223.853 342.188 C 225.728 325.891,224.491 325.000,200.000 325.000 C 175.509 325.000,174.272 325.891,176.147 342.188 " stroke="none" fill="#ffffff" fill-rule="evenodd"></path></g></svg>