<svg id="svg" version="1.1" xmlns="http://www.w3.org/2000/svg" xmlns:xlink="http://www.w3.org/1999/xlink" width="64" height="64" viewBox="0, 0, 400,400"><g id="svgg"><path id="path0" d="M175.000 62.079 C 175.000 68.722,169.548 75.888,162.885 78.003 C 134.377 87.051,112.500 123.174,112.500 161.196 C 112.500 206.557,103.886 236.726,87.696 248.066 C 79.115 254.077,75.000 263.933,75.000 278.479 L 75.000 300.000 200.000 300.000 L 325.000 300.000 325.000 278.479 C 325.000 263.933,320.885 254.077,312.304 248.066 C 296.562 237.040,288.146 208.966,288.460 168.525 C 288.744 131.759,273.629 102.324,245.247 84.375 C 234.376 77.500,225.373 66.953,225.241 60.938 C 224.867 43.974,175.000 45.106,175.000 62.079 M176.147 342.188 C 179.132 368.128,220.868 368.128,223.853 342.188 C 225.728 325.891,224.491 325.000,200.000 325.000 C 175.509 325.000,174.272 325.891,176.147 342.188 " stroke="none" fill="#ffffff" fill-rule="evenodd"></path></g></svg>