<?xml version="1.0" standalone="no"?>
<!DOCTYPE svg PUBLIC "-//W3C//DTD SVG 20010904//EN"
 "http://www.w3.org/TR/2001/REC-SVG-20010904/DTD/svg10.dtd">
<svg version="1.0" xmlns="http://www.w3.org/2000/svg"
 width="64.000000pt" height="64.000000pt" viewBox="0 0 64.000000 64.000000"
 preserveAspectRatio="xMidYMid meet">
<metadata>
Created by potrace 1.15, written by Peter Selinger 2001-2017
</metadata>
<g transform="translate(0.000000,64.000000) scale(0.100000,-0.100000)"
fill="#000000" stroke="none">
<path d="M104 527 c-2 -7 -3 -109 -2 -227 l3 -215 215 0 215 0 0 225 c0 199
-2 225 -16 228 -10 2 -19 -5 -22 -18 -7 -26 -27 -26 -34 0 -3 11 -13 20 -23
20 -10 0 -20 -9 -23 -20 -3 -11 -10 -20 -17 -20 -7 0 -14 9 -17 20 -3 11 -13
20 -23 20 -10 0 -20 -9 -23 -20 -3 -11 -10 -20 -17 -20 -7 0 -14 9 -17 20 -3
11 -13 20 -23 20 -10 0 -20 -9 -23 -20 -3 -11 -10 -20 -17 -20 -7 0 -14 9 -17
20 -3 11 -13 20 -23 20 -10 0 -20 -9 -23 -20 -3 -11 -10 -20 -17 -20 -7 0 -14
9 -17 20 -6 22 -31 27 -39 7z m396 -267 l0 -140 -180 0 -180 0 0 140 0 140
180 0 180 0 0 -140z"/>
</g>
</svg>
