<svg id="svg" xmlns="http://www.w3.org/2000/svg" xmlns:xlink="http://www.w3.org/1999/xlink" width="400" height="400" viewBox="0, 0, 400,400"><g id="svgg"><path id="path0" d="M164.311 62.500 C 161.996 71.354,155.786 75.000,143.021 75.000 C 129.354 75.000,125.000 77.929,125.000 87.123 C 125.000 96.620,119.923 99.666,101.563 101.185 L 78.125 103.125 78.125 225.000 L 78.125 346.875 200.000 346.875 L 321.875 346.875 321.875 225.000 L 321.875 103.125 298.438 101.185 C 280.077 99.666,275.000 96.620,275.000 87.123 C 275.000 77.929,270.646 75.000,256.979 75.000 C 244.214 75.000,238.004 71.354,235.689 62.500 C 232.950 52.027,227.164 50.000,200.000 50.000 C 172.836 50.000,167.050 52.027,164.311 62.500 M125.000 137.500 C 125.000 149.306,129.167 150.000,200.000 150.000 C 270.833 150.000,275.000 149.306,275.000 137.500 C 275.000 129.167,279.167 125.000,287.500 125.000 C 299.479 125.000,300.000 129.167,300.000 225.000 L 300.000 325.000 200.000 325.000 L 100.000 325.000 100.000 225.000 C 100.000 129.167,100.521 125.000,112.500 125.000 C 120.833 125.000,125.000 129.167,125.000 137.500 M125.000 187.500 C 125.000 199.306,129.167 200.000,200.000 200.000 C 270.833 200.000,275.000 199.306,275.000 187.500 C 275.000 175.694,270.833 175.000,200.000 175.000 C 129.167 175.000,125.000 175.694,125.000 187.500 M125.000 237.500 C 125.000 249.306,129.167 250.000,200.000 250.000 C 270.833 250.000,275.000 249.306,275.000 237.500 C 275.000 225.694,270.833 225.000,200.000 225.000 C 129.167 225.000,125.000 225.694,125.000 237.500 M125.000 287.500 C 125.000 299.306,129.167 300.000,200.000 300.000 C 270.833 300.000,275.000 299.306,275.000 287.500 C 275.000 275.694,270.833 275.000,200.000 275.000 C 129.167 275.000,125.000 275.694,125.000 287.500 " stroke="none" fill="#000000" fill-rule="evenodd"></path></g></svg>