<?xml version="1.0" standalone="no"?>
<!DOCTYPE svg PUBLIC "-//W3C//DTD SVG 20010904//EN"
 "http://www.w3.org/TR/2001/REC-SVG-20010904/DTD/svg10.dtd">
<svg version="1.0" xmlns="http://www.w3.org/2000/svg"
 width="64.000000pt" height="64.000000pt" viewBox="0 0 64.000000 64.000000"
 preserveAspectRatio="xMidYMid meet">
<metadata>
Created by potrace 1.15, written by Peter Selinger 2001-2017
</metadata>
<g transform="translate(0.000000,64.000000) scale(0.100000,-0.100000)"
fill="#000000" stroke="none">
<path d="M343 544 c-3 -8 -17 -20 -30 -25 -16 -6 -23 -15 -19 -24 4 -12 -3
-15 -29 -15 -23 0 -37 -6 -43 -17 -14 -28 -3 -88 19 -101 18 -11 19 -9 19 33
0 38 3 45 20 45 13 0 20 -7 20 -20 0 -19 7 -20 90 -20 83 0 90 1 90 20 0 13 7
20 20 20 19 0 20 -7 20 -160 l0 -160 -89 0 c-86 0 -101 -5 -101 -36 0 -3 51
-3 113 -2 l112 3 0 195 0 195 -37 3 c-30 3 -38 7 -38 23 0 12 -7 19 -19 19
-10 0 -21 9 -24 20 -4 16 -14 20 -46 20 -29 0 -44 -5 -48 -16z"/>
<path d="M78 333 c-2 -5 -2 -63 0 -130 l3 -123 110 0 109 0 0 70 0 70 -48 0
c-26 0 -53 5 -60 12 -7 7 -12 34 -12 60 l0 48 -49 0 c-28 0 -51 -3 -53 -7z"/>
</g>
</svg>
