<?xml version="1.0" standalone="no"?>
<!DOCTYPE svg PUBLIC "-//W3C//DTD SVG 20010904//EN"
 "http://www.w3.org/TR/2001/REC-SVG-20010904/DTD/svg10.dtd">
<svg version="1.0" xmlns="http://www.w3.org/2000/svg"
 width="64.000000pt" height="64.000000pt" viewBox="0 0 64.000000 64.000000"
 preserveAspectRatio="xMidYMid meet">
<metadata>
Created by potrace 1.15, written by Peter Selinger 2001-2017
</metadata>
<g transform="translate(0.000000,64.000000) scale(0.100000,-0.100000)"
 stroke="none">
<path d="M260 560 c0 -18 -7 -20 -70 -20 l-70 0 0 -30 0 -30 200 0 200 0 0 30
0 30 -70 0 c-63 0 -70 2 -70 20 0 18 -7 20 -60 20 -53 0 -60 -2 -60 -20z"/>
<path d="M142 263 l3 -178 175 0 175 0 3 178 2 177 -180 0 -180 0 2 -177z"/>
</g>
</svg>
