<svg id="svg" xmlns="http://www.w3.org/2000/svg" xmlns:xlink="http://www.w3.org/1999/xlink" width="400" height="400" viewBox="0, 0, 400,400"><g id="svgg"><path id="path0" d="M134.375 61.874 C -11.111 129.377,37.964 349.301,198.638 349.863 C 289.843 350.182,349.725 290.784,349.725 200.000 C 349.725 87.343,236.292 14.586,134.375 61.874 M264.134 114.064 C 349.965 179.531,297.941 313.847,190.214 304.913 C 50.749 293.348,67.481 87.049,207.201 95.458 C 233.569 97.045,248.008 101.764,264.134 114.064 M144.839 145.715 C 137.365 153.671,131.250 162.631,131.250 165.625 C 131.250 168.619,137.365 177.579,144.839 185.535 L 158.429 200.000 144.839 214.465 C 115.556 245.636,154.364 284.444,185.535 255.161 L 200.000 241.571 214.465 255.161 C 245.636 284.444,284.444 245.636,255.161 214.465 L 241.571 200.000 255.161 185.535 C 284.444 154.364,245.636 115.556,214.465 144.839 L 200.000 158.429 185.535 144.839 C 167.277 127.687,161.663 127.808,144.839 145.715 " stroke="none" fill-rule="evenodd"></path></g></svg>