<svg id="svg" xmlns="http://www.w3.org/2000/svg" xmlns:xlink="http://www.w3.org/1999/xlink" width="400" height="400" viewBox="0, 0, 400,400"><g id="svgg"><path id="path0" d="M128.000 37.333 C 124.676 40.658,124.444 43.259,124.444 77.333 L 124.444 113.778 118.222 113.778 C 109.357 113.778,104.889 118.842,104.889 128.889 C 104.889 143.740,105.699 144.000,152.043 144.000 L 192.086 144.000 191.599 173.751 L 191.111 203.502 144.000 229.631 L 96.889 255.760 60.743 256.324 C 15.380 257.033,19.556 252.616,19.556 299.895 L 19.556 336.000 13.333 336.000 C 0.987 336.000,-5.478 353.633,3.556 362.667 C 8.451 367.562,179.355 368.299,186.271 363.455 C 196.889 356.018,189.759 336.000,176.493 336.000 L 170.667 336.000 170.667 298.884 C 170.667 255.081,171.735 257.307,150.085 256.000 L 135.363 255.111 167.940 237.172 L 200.518 219.234 233.098 237.172 L 265.679 255.111 250.435 256.000 C 228.186 257.297,229.333 254.965,229.333 298.884 L 229.333 336.000 223.507 336.000 C 210.241 336.000,203.111 356.018,213.729 363.455 C 220.645 368.299,391.549 367.562,396.444 362.667 C 405.478 353.633,399.013 336.000,386.667 336.000 L 380.444 336.000 380.444 299.895 C 380.444 252.672,384.617 257.115,339.227 256.000 L 303.049 255.111 256.438 229.333 L 209.826 203.556 209.802 173.778 L 209.778 144.000 248.493 144.000 C 294.675 144.000,295.111 143.859,295.111 128.889 C 295.111 117.853,291.408 113.778,281.382 113.778 L 275.556 113.778 275.556 76.545 C 275.556 40.086,275.474 39.255,271.604 36.545 C 264.725 31.727,132.883 32.450,128.000 37.333 M257.778 82.667 L 257.778 112.000 200.889 112.000 L 144.000 112.000 144.000 82.667 L 144.000 53.333 200.889 53.333 L 257.778 53.333 257.778 82.667 M152.889 305.778 L 152.889 336.000 95.556 336.000 L 38.222 336.000 38.222 305.778 L 38.222 275.556 95.556 275.556 L 152.889 275.556 152.889 305.778 M361.423 305.333 L 361.068 335.111 304.534 335.111 L 248.000 335.111 247.513 305.333 L 247.025 275.556 304.401 275.555 L 361.778 275.555 361.423 305.333 " stroke="none" fill-rule="evenodd"></path></g></svg>