<svg id="svg" xmlns="http://www.w3.org/2000/svg" xmlns:xlink="http://www.w3.org/1999/xlink" width="400" height="400" viewBox="0, 0, 400,400"><g id="svgg"><path id="path0" d="M185.745 29.330 C 184.131 32.105,180.905 51.250,178.575 71.875 C 170.291 145.216,168.689 150.000,152.429 150.000 C 141.050 150.000,137.551 153.344,137.715 164.063 C 137.983 181.601,188.002 253.125,200.000 253.125 C 211.998 253.125,262.017 181.601,262.285 164.063 C 262.450 153.265,258.961 150.000,247.258 150.000 C 230.880 150.000,232.515 155.266,220.097 62.500 C 215.705 29.689,196.386 11.035,185.745 29.330 M72.844 73.930 C 56.491 91.999,57.435 312.229,73.930 327.156 C 91.791 343.321,312.211 342.584,326.939 326.311 C 342.693 308.902,343.314 91.783,327.658 74.484 C 312.968 58.252,233.806 56.358,239.956 72.386 C 242.043 77.824,243.750 86.099,243.750 90.777 C 243.750 96.314,253.018 99.952,270.313 101.203 L 296.875 103.125 296.875 200.000 L 296.875 296.875 200.000 296.875 L 103.125 296.875 103.125 200.000 L 103.125 103.125 129.688 101.203 C 146.982 99.952,156.250 96.314,156.250 90.777 C 156.250 86.099,157.957 77.824,160.044 72.386 C 166.029 56.788,87.093 58.185,72.844 73.930 " stroke="none" fill-rule="evenodd"></path></g></svg>