<svg id="svg" xmlns="http://www.w3.org/2000/svg" xmlns:xlink="http://www.w3.org/1999/xlink" width="400" height="400" viewBox="0, 0, 400,400"><g id="svgg"><path id="path0" d="M61.306 54.688 C 60.244 57.266,60.212 105.078,61.236 160.938 L 63.097 262.500 112.798 262.500 L 162.500 262.500 162.500 209.886 C 162.500 180.949,163.945 153.507,165.711 148.905 C 167.524 144.179,162.764 137.837,154.773 134.331 C 142.585 128.985,140.367 122.714,138.764 89.063 L 136.904 50.000 100.071 50.000 C 79.813 50.000,62.369 52.109,61.306 54.688 M162.500 81.250 L 162.500 112.500 195.078 112.500 L 227.655 112.500 196.875 81.250 C 179.946 64.063,165.286 50.000,164.297 50.000 C 163.309 50.000,162.500 64.063,162.500 81.250 M186.306 142.188 C 185.244 144.766,185.212 192.578,186.236 248.438 L 188.097 350.000 269.048 350.000 L 350.000 350.000 350.000 287.500 L 350.000 225.000 313.750 225.000 C 268.537 225.000,262.500 218.963,262.500 173.750 L 262.500 137.500 225.369 137.500 C 204.947 137.500,187.369 139.609,186.306 142.188 M287.500 168.750 L 287.500 200.000 320.078 200.000 L 352.655 200.000 321.875 168.750 C 304.946 151.563,290.286 137.500,289.297 137.500 C 288.309 137.500,287.500 151.563,287.500 168.750 " stroke="none" fill="#000000" fill-rule="evenodd"></path></g></svg>