<svg id="svg" xmlns="http://www.w3.org/2000/svg" xmlns:xlink="http://www.w3.org/1999/xlink" width="400" height="400" viewBox="0, 0, 400,400"><g id="svgg"><path id="path0" d="M100.000 187.500 C 100.000 275.000,97.727 325.000,93.750 325.000 C 90.313 325.000,87.500 330.625,87.500 337.500 C 87.500 348.333,91.667 350.000,118.750 350.000 C 145.833 350.000,150.000 348.333,150.000 337.500 C 150.000 330.625,147.188 325.000,143.750 325.000 C 140.104 325.000,137.500 304.167,137.500 275.000 L 137.500 225.000 168.021 225.000 C 193.472 225.000,199.095 227.115,201.872 237.733 C 204.979 249.615,209.308 250.345,266.663 248.670 L 328.125 246.875 339.855 182.845 C 354.499 102.910,352.878 100.000,293.714 100.000 C 256.714 100.000,251.051 98.445,248.189 87.500 C 245.240 76.223,239.664 75.000,191.210 75.000 C 141.667 75.000,137.500 74.030,137.500 62.500 C 137.500 52.778,133.333 50.000,118.750 50.000 L 100.000 50.000 100.000 187.500 " stroke="none" fill-rule="evenodd"></path></g></svg>