<?xml version="1.0" standalone="no"?>
<!DOCTYPE svg PUBLIC "-//W3C//DTD SVG 20010904//EN"
 "http://www.w3.org/TR/2001/REC-SVG-20010904/DTD/svg10.dtd">
<svg version="1.0" xmlns="http://www.w3.org/2000/svg"
 width="64.000000pt" height="64.000000pt" viewBox="0 0 64.000000 64.000000"
 preserveAspectRatio="xMidYMid meet">
<metadata>
Created by potrace 1.15, written by Peter Selinger 2001-2017
</metadata>
<g transform="translate(0.000000,64.000000) scale(0.100000,-0.100000)"
fill="#000000" stroke="none">
<path d="M80 539 c0 -46 24 -159 33 -159 6 0 18 7 28 16 16 14 21 13 58 -11
68 -45 101 -12 56 56 -24 37 -25 42 -11 58 27 30 18 38 -53 50 -99 16 -111 15
-111 -10z"/>
<path d="M438 548 c-61 -11 -68 -20 -42 -49 14 -16 13 -21 -11 -58 -45 -68
-12 -101 56 -56 37 24 42 25 58 11 10 -9 22 -16 28 -16 9 0 33 113 33 159 0
24 -24 26 -122 9z"/>
<path d="M197 254 c-35 -24 -40 -24 -56 -10 -10 9 -22 16 -28 16 -12 0 -40
-166 -30 -177 11 -10 177 18 177 30 0 6 -7 18 -16 28 -14 16 -13 21 12 59 21
32 25 46 17 58 -16 26 -34 25 -76 -4z"/>
<path d="M372 268 c-17 -17 -15 -29 14 -71 24 -35 24 -40 10 -56 -9 -10 -16
-22 -16 -28 0 -12 166 -40 177 -30 10 11 -18 177 -30 177 -6 0 -18 -7 -28 -16
-16 -14 -21 -14 -56 10 -42 29 -54 31 -71 14z"/>
</g>
</svg>
