<?xml version="1.0" standalone="no"?>
<!DOCTYPE svg PUBLIC "-//W3C//DTD SVG 20010904//EN"
 "http://www.w3.org/TR/2001/REC-SVG-20010904/DTD/svg10.dtd">
<svg version="1.0" xmlns="http://www.w3.org/2000/svg"
 width="64.000000pt" height="64.000000pt" viewBox="0 0 64.000000 64.000000"
 preserveAspectRatio="xMidYMid meet">
<metadata>
Created by potrace 1.15, written by Peter Selinger 2001-2017
</metadata>
<g transform="translate(0.000000,64.000000) scale(0.100000,-0.100000)"
fill="#000000" stroke="none">
<path d="M129 504 c-11 -14 -10 -22 9 -55 19 -32 20 -42 10 -58 -7 -11 -10
-22 -7 -25 9 -9 149 -29 156 -23 6 7 -14 147 -23 156 -3 3 -14 0 -25 -7 -17
-11 -25 -10 -53 8 -40 24 -50 25 -67 4z"/>
<path d="M443 499 c-27 -17 -35 -18 -52 -7 -11 7 -22 10 -25 7 -9 -9 -29 -149
-23 -156 7 -6 147 14 156 23 3 3 0 14 -7 25 -10 16 -9 26 10 58 19 33 20 41 9
55 -17 21 -29 20 -68 -5z"/>
<path d="M193 288 c-52 -9 -64 -23 -42 -45 8 -8 4 -22 -13 -52 -22 -39 -22
-41 -5 -58 17 -17 19 -17 58 5 30 17 44 21 52 13 23 -23 35 -9 46 52 19 108
21 106 -96 85z"/>
<path d="M340 283 c0 -9 5 -45 11 -80 11 -61 23 -75 46 -52 8 8 22 4 52 -13
39 -22 41 -22 58 -5 17 17 17 19 -5 58 -17 30 -21 44 -13 52 23 23 9 35 -52
46 -85 15 -97 14 -97 -6z"/>
</g>
</svg>
