<svg id="svg" xmlns="http://www.w3.org/2000/svg" xmlns:xlink="http://www.w3.org/1999/xlink" width="400" height="400" viewBox="0, 0, 400,400"><g id="svgg"><path id="path0" d="M96.190 99.918 C 15.319 118.202,-3.952 240.529,68.163 277.822 C 107.794 298.316,184.372 283.453,196.059 252.999 C 198.011 247.912,203.030 243.750,207.214 243.750 C 211.397 243.750,221.299 237.662,229.219 230.222 C 243.183 217.103,243.999 217.038,256.185 228.066 C 268.311 239.040,269.186 239.042,281.250 228.125 C 293.313 217.209,294.187 217.209,306.250 228.125 C 318.271 239.004,319.224 239.008,331.133 228.231 C 340.942 219.354,345.387 218.578,352.518 224.496 C 367.535 236.959,387.500 220.017,387.500 194.811 C 387.500 157.342,371.327 150.448,282.865 150.208 C 212.488 150.017,205.726 148.970,198.490 137.145 C 181.198 108.882,133.428 91.499,96.190 99.918 M93.610 187.238 C 98.854 197.037,97.783 200.747,88.236 205.856 C 71.810 214.647,57.092 198.422,68.750 184.375 C 79.178 171.810,85.758 172.567,93.610 187.238 " stroke="none" fill-rule="evenodd"></path></g></svg>