<?xml version="1.0" standalone="no"?>
<!DOCTYPE svg PUBLIC "-//W3C//DTD SVG 20010904//EN"
 "http://www.w3.org/TR/2001/REC-SVG-20010904/DTD/svg10.dtd">
<svg version="1.0" xmlns="http://www.w3.org/2000/svg"
 width="64.000000pt" height="64.000000pt" viewBox="0 0 64.000000 64.000000"
 preserveAspectRatio="xMidYMid meet">
<metadata>
Created by potrace 1.15, written by Peter Selinger 2001-2017
</metadata>
<g transform="translate(0.000000,64.000000) scale(0.100000,-0.100000)"
fill="#000000" stroke="none">
<path d="M273 559 c-53 -10 -80 -23 -121 -63 -42 -39 -60 -73 -71 -134 -11
-53 -1 -72 35 -72 17 0 25 7 29 25 3 14 8 37 11 53 8 39 47 87 87 106 61 28
185 14 158 -18 -19 -22 -2 -46 33 -46 17 0 48 -3 69 -6 34 -6 37 -5 37 17 -1
49 -26 124 -43 127 -9 2 -20 -3 -23 -11 -5 -13 -11 -13 -47 3 -54 23 -102 29
-154 19z"/>
<path d="M495 325 c-3 -14 -8 -37 -11 -52 -8 -40 -47 -88 -87 -107 -61 -28
-185 -14 -158 18 19 22 2 46 -33 46 -17 0 -48 3 -69 6 -34 6 -37 5 -37 -17 1
-49 26 -124 43 -127 9 -2 20 3 23 11 5 13 12 12 51 -5 90 -40 203 -21 271 45
42 40 60 74 71 135 11 53 1 72 -35 72 -17 0 -25 -7 -29 -25z"/>
</g>
</svg>
