<svg id="svg" xmlns="http://www.w3.org/2000/svg" xmlns:xlink="http://www.w3.org/1999/xlink" width="400" height="400" viewBox="0, 0, 400,400"><g id="svgg"><path id="path0" d="M134.375 61.874 C -11.082 129.363,39.238 351.250,200.000 351.250 C 362.780 351.250,410.827 122.125,261.138 59.692 C 229.052 46.309,165.566 47.402,134.375 61.874 M264.134 114.064 C 349.965 179.531,297.941 313.847,190.214 304.913 C 50.749 293.348,67.481 87.049,207.201 95.458 C 233.569 97.045,248.008 101.764,264.134 114.064 M162.500 200.000 C 162.500 266.358,162.328 266.262,221.161 232.813 C 273.394 203.115,273.553 194.757,222.422 166.163 C 163.150 133.016,162.500 133.383,162.500 200.000 " stroke="none" fill-rule="evenodd"></path></g></svg>