<svg id="svg" xmlns="http://www.w3.org/2000/svg" xmlns:xlink="http://www.w3.org/1999/xlink" width="400" height="400" viewBox="0, 0, 400,400"><g id="svgg"><path id="path0" d="M171.937 68.467 C 167.068 90.638,148.329 98.313,126.973 86.884 C 116.203 81.120,108.698 80.587,101.573 85.081 C 82.855 96.888,78.076 110.517,86.884 126.973 C 98.313 148.329,90.638 167.068,68.467 171.937 C 40.487 178.083,40.578 221.553,68.583 227.154 C 89.087 231.255,101.100 257.650,88.292 270.458 C 65.918 292.832,94.600 323.772,126.892 312.095 C 154.641 302.061,166.556 307.033,171.782 330.828 C 177.101 355.044,225.000 361.050,225.000 337.500 C 225.000 311.279,246.944 298.745,271.963 310.676 C 305.581 326.707,326.707 305.581,310.676 271.963 C 298.745 246.944,311.279 225.000,337.500 225.000 C 361.050 225.000,355.044 177.101,330.828 171.782 C 307.033 166.556,302.061 154.641,312.095 126.892 C 323.772 94.600,292.832 65.918,270.458 88.292 C 257.650 101.100,231.255 89.087,227.154 68.583 C 221.553 40.578,178.083 40.487,171.937 68.467 M231.731 168.269 C 253.153 189.691,254.680 204.865,237.599 226.580 C 203.015 270.546,134.609 233.497,155.820 182.288 C 170.192 147.590,204.682 141.221,231.731 168.269 " stroke="none" fill-rule="evenodd"></path></g></svg>