<?xml version="1.0" standalone="no"?>
<!DOCTYPE svg PUBLIC "-//W3C//DTD SVG 20010904//EN"
 "http://www.w3.org/TR/2001/REC-SVG-20010904/DTD/svg10.dtd">
<svg version="1.0" xmlns="http://www.w3.org/2000/svg"
 width="64.000000pt" height="64.000000pt" viewBox="0 0 64.000000 64.000000"
 preserveAspectRatio="xMidYMid meet">
<metadata>
Created by potrace 1.15, written by Peter Selinger 2001-2017
</metadata>
<g transform="translate(0.000000,64.000000) scale(0.100000,-0.100000)"
fill="#000000" stroke="none">
<path d="M117 522 c-15 -16 -17 -45 -17 -204 0 -166 2 -187 18 -201 16 -15 45
-17 204 -17 231 0 218 -9 218 155 l0 119 -30 -29 c-27 -26 -29 -35 -32 -104
l-3 -76 -155 0 -155 0 0 155 0 155 136 3 136 3 28 29 29 30 -181 0 c-162 0
-182 -2 -196 -18z"/>
<path d="M400 405 l-75 -75 33 -32 32 -33 77 77 77 77 -29 31 c-16 16 -31 30
-35 30 -3 0 -39 -34 -80 -75z"/>
</g>
</svg>
