<svg id="svg" xmlns="http://www.w3.org/2000/svg" xmlns:xlink="http://www.w3.org/1999/xlink" width="400" height="400" viewBox="0, 0, 400,400"><g id="svgg"><path id="path0" d="M72.844 73.930 C 56.491 91.999,57.435 312.229,73.930 327.156 C 83.699 335.997,102.172 337.500,201.086 337.500 C 345.711 337.500,337.500 343.337,337.500 240.526 L 337.500 166.411 318.996 184.139 C 302.112 200.316,300.334 206.024,298.684 249.371 L 296.875 296.875 200.000 296.875 L 103.125 296.875 103.125 200.000 L 103.125 103.125 188.056 101.393 L 272.987 99.660 290.788 81.080 L 308.589 62.500 195.888 62.500 C 94.643 62.500,82.136 63.662,72.844 73.930 M321.650 75.249 C 303.544 95.256,342.244 133.956,362.251 115.850 C 378.676 100.986,378.322 92.800,360.535 76.089 C 342.598 59.239,336.262 59.102,321.650 75.249 M249.982 146.893 L 203.402 193.786 223.611 213.995 L 243.820 234.204 291.997 186.027 L 340.174 137.850 322.043 118.925 C 298.755 94.617,303.888 92.625,249.982 146.893 M177.740 234.514 C 164.251 269.833,167.667 273.249,202.986 259.760 C 236.181 247.083,236.757 245.114,213.721 223.044 C 190.914 201.195,190.402 201.358,177.740 234.514 " stroke="none" fill="#000000" fill-rule="evenodd"></path></g></svg>